/* XPM */
static const char * icon_xpm[] = {
"48 48 227 2",
"  	c None",
". 	c #FFFFFF",
"+ 	c #FCFCFC",
"@ 	c #C4C4C4",
"# 	c #F9F9F9",
"$ 	c #969696",
"% 	c #F4F4F4",
"& 	c #D2D2D2",
"* 	c #EFEFEF",
"= 	c #D5D5D5",
"- 	c #525252",
"; 	c #959595",
"> 	c #C5C5C5",
", 	c #FBFBFB",
"' 	c #F2F2F2",
") 	c #6D6D6D",
"! 	c #C2C2C2",
"~ 	c #B3B3B3",
"{ 	c #BCBCBC",
"] 	c #727272",
"^ 	c #D8D8D8",
"/ 	c #F7F7F7",
"( 	c #B0B0B0",
"_ 	c #787878",
": 	c #BABABA",
"< 	c #878787",
"[ 	c #FEFEFE",
"} 	c #A1A1A1",
"| 	c #6B6B6B",
"1 	c #E6E6E6",
"2 	c #555555",
"3 	c #F6F6F6",
"4 	c #5C5C5C",
"5 	c #979797",
"6 	c #CECECE",
"7 	c #434343",
"8 	c #8E8E8E",
"9 	c #C0C0C0",
"0 	c #4A4A4A",
"a 	c #2B2B2B",
"b 	c #8F8F8F",
"c 	c #7C7C7C",
"d 	c #CCCCCC",
"e 	c #BFBFBF",
"f 	c #C7C7C7",
"g 	c #858585",
"h 	c #F0F0F0",
"i 	c #212121",
"j 	c #6E6E6E",
"k 	c #6A6A6A",
"l 	c #D0D0D0",
"m 	c #DFDFDF",
"n 	c #C3C3C3",
"o 	c #999999",
"p 	c #111111",
"q 	c #0F0F0F",
"r 	c #A6A6A6",
"s 	c #454545",
"t 	c #535353",
"u 	c #F1F1F1",
"v 	c #5B5B5B",
"w 	c #0E0E0E",
"x 	c #060606",
"y 	c #585858",
"z 	c #545454",
"A 	c #ADADAD",
"B 	c #5D5D5D",
"C 	c #FAFAFA",
"D 	c #B8B8B8",
"E 	c #9B9B9B",
"F 	c #494949",
"G 	c #151515",
"H 	c #0A0A0A",
"I 	c #5E5E5E",
"J 	c #868686",
"K 	c #444444",
"L 	c #888888",
"M 	c #848484",
"N 	c #808080",
"O 	c #1D1D1D",
"P 	c #CACACA",
"Q 	c #5A5A5A",
"R 	c #E4E4E4",
"S 	c #949494",
"T 	c #464646",
"U 	c #181818",
"V 	c #393939",
"W 	c #717171",
"X 	c #E3E3E3",
"Y 	c #686868",
"Z 	c #2F2F2F",
"` 	c #A3A3A3",
" .	c #ECECEC",
"..	c #E5E5E5",
"+.	c #696969",
"@.	c #EEEEEE",
"#.	c #8B8B8B",
"$.	c #141414",
"%.	c #010101",
"&.	c #777777",
"*.	c #B2B2B2",
"=.	c #646464",
"-.	c #A4A4A4",
";.	c #303030",
">.	c #E8E8E8",
",.	c #242424",
"'.	c #323232",
").	c #AAAAAA",
"!.	c #CFCFCF",
"~.	c #E0E0E0",
"{.	c #000000",
"].	c #565656",
"^.	c #1B1B1B",
"/.	c #B4B4B4",
"(.	c #F5F5F5",
"_.	c #E1E1E1",
":.	c #101010",
"<.	c #929292",
"[.	c #898989",
"}.	c #838383",
"|.	c #B5B5B5",
"1.	c #797979",
"2.	c #2A2A2A",
"3.	c #BEBEBE",
"4.	c #818181",
"5.	c #3D3D3D",
"6.	c #C8C8C8",
"7.	c #2D2D2D",
"8.	c #9F9F9F",
"9.	c #B6B6B6",
"0.	c #9A9A9A",
"a.	c #414141",
"b.	c #828282",
"c.	c #292929",
"d.	c #313131",
"e.	c #D1D1D1",
"f.	c #A8A8A8",
"g.	c #919191",
"h.	c #D4D4D4",
"i.	c #A2A2A2",
"j.	c #E7E7E7",
"k.	c #ACACAC",
"l.	c #DADADA",
"m.	c #9D9D9D",
"n.	c #8D8D8D",
"o.	c #636363",
"p.	c #A0A0A0",
"q.	c #363636",
"r.	c #CBCBCB",
"s.	c #BBBBBB",
"t.	c #D6D6D6",
"u.	c #DCDCDC",
"v.	c #262626",
"w.	c #383838",
"x.	c #D7D7D7",
"y.	c #666666",
"z.	c #A7A7A7",
"A.	c #606060",
"B.	c #4E4E4E",
"C.	c #E9E9E9",
"D.	c #BDBDBD",
"E.	c #DBDBDB",
"F.	c #8C8C8C",
"G.	c #B7B7B7",
"H.	c #D3D3D3",
"I.	c #4C4C4C",
"J.	c #616161",
"K.	c #C6C6C6",
"L.	c #4D4D4D",
"M.	c #F3F3F3",
"N.	c #222222",
"O.	c #373737",
"P.	c #3E3E3E",
"Q.	c #909090",
"R.	c #424242",
"S.	c #DEDEDE",
"T.	c #8A8A8A",
"U.	c #FDFDFD",
"V.	c #DDDDDD",
"W.	c #9E9E9E",
"X.	c #989898",
"Y.	c #484848",
"Z.	c #A5A5A5",
"`.	c #C9C9C9",
" +	c #656565",
".+	c #AEAEAE",
"++	c #7B7B7B",
"@+	c #333333",
"#+	c #282828",
"$+	c #EDEDED",
"%+	c #232323",
"&+	c #343434",
"*+	c #9C9C9C",
"=+	c #AFAFAF",
"-+	c #737373",
";+	c #1A1A1A",
">+	c #171717",
",+	c #ABABAB",
"'+	c #515151",
")+	c #020202",
"!+	c #A9A9A9",
"~+	c #2E2E2E",
"{+	c #4F4F4F",
"]+	c #040404",
"^+	c #7D7D7D",
"/+	c #E2E2E2",
"(+	c #747474",
"_+	c #161616",
":+	c #676767",
"<+	c #353535",
"[+	c #C1C1C1",
"}+	c #3A3A3A",
"|+	c #757575",
"1+	c #EAEAEA",
"2+	c #272727",
"3+	c #1F1F1F",
"4+	c #767676",
"5+	c #7A7A7A",
"6+	c #050505",
"7+	c #131313",
"8+	c #202020",
"9+	c #626262",
"0+	c #B1B1B1",
"a+	c #575757",
"b+	c #4B4B4B",
"c+	c #707070",
"d+	c #6F6F6F",
". . . . . . . . . . . . . . . . . . . . . . . . . . . . . . . . . . . . . . . . . . . . . . . . ",
". . . . . . . . . . . . . . . . . . . . . . . . . . . . . . . . . . . . . . . . . . . . . . . . ",
". + @ # . . . . . . . . . . . . . . . . . . . . . . . . . . . . . . . . . . . . . . . . . . . . ",
". # $ % . . . . . . . . . . . . . . . . . . . . . . . . . . . . . . . . . . . . . . . . . . . . ",
". # $ % . . . . . . . . . . . . . . . . . . . . . . . . . . . . . . . . . . . . . . . . . . . . ",
". # $ % . . . . . . . . . . . . . . . . . . . . . . . . . . . . . . . . . . . . . . . . . . . . ",
". # $ % . . . . . . . . . . . . . . . . . . . . . . . . . . . . . . . . . . . . . . . . . . . . ",
". # $ % . . . . . . . . . . . . . . . . . . . . . . . . . . . . . . . . . . . . . . . . . . . . ",
". # $ % . . . . . . . . . . . . . . . . . . . . . . . . . . . . . . . . . . . . . . . . . . . . ",
". # $ % . . . . . . . . . . . . . . . . . . . . . . . . . . . . . . . . . . . . . . . . . . . . ",
". # $ % . . . . . . . . . . . . . . . . . . . . . . . . . . . . . . . . . . . . . . . . . . . . ",
". # $ % . . . . . . . . . . . . . . . . . . . . . . . . . . . . . . . . . . . . . . . . . . . . ",
". # $ % . . . . . . . . . . . . . . . . . . . . . . . . . . . . . . . . . . . . . . . . . . . . ",
". # $ % . . . . . . . . . . . . . . . . . . . . . . . . . . . . . . . . . . . . . . . . . . . . ",
". # $ % . . . . . . . . . . . . . . . . . . . . . . . . . . . . . . . . . . . . . . . . . . . . ",
". # $ % . . . . . . . . . . . . . . . . . . . . . . . . . . . . . . . . . . . . . . . . . . . . ",
". # $ % . . . . . . . . . . . . & * . . . . . . . . . . . . . . . . . . . . . . . . . . . . . . ",
". # $ % . . . . . . . . . . . = - ; > , . . . . . . . . . . . . . . . . . . . . . . . . . . . . ",
". # $ % . . . . . . . . . . ' ) = ! ~ { . . . . . . . . . . . . . . . . . . . . . . . . . . . . ",
". # $ % . . . . . . . . . . ] ^ / ( . _ . . . . . . . . . . . . . . . . . . . . . . . . . . . . ",
". # $ % . . . . . . . . . : < [ } | 1 2 . . . . . . . . . . . . . . . . . . . . . . . . . . . . ",
". # $ % . . . . . . . . 3 4 5 6 7 8 9 0 . . . . . . . . . . . . . . . . . . . . . . . . . . . . ",
". # $ % . . . . . . . . * a b c d e f g = . . . . . . . . . . . . . . . . . . . . . . . . . . . ",
". # $ % . . . . . . . . h i j k l d m n o . . . . . . . . . . . . . . . . . . . . . . . . . . . ",
". # $ % . . . . . . . . * p q r s t f u v . . . . . . . . . . . . . . . . . . . . . . . . . . . ",
". # $ % . . . . . . . . 9 w x ~ y z A < B . . . . . . . . . C f D . . . . . . . . . . . . . . . ",
". # $ % . . . . . . . E F G H I J K L M N . . . . . . . C b B 8 O . . . . . . . . . . . . . . . ",
". # $ % . . . . . . P Q R S T U V V W O b . . . . . X Y Z `  ...+.n . . . . . . . . . . . . . . ",
". # $ % . [ h @.[ . B h . n #.$.%.&.*.=.8 . . . . -.;.*.. . @.+.>.] . . . . . . . . . . . . . . ",
". # $ % . P ,.'.).!.=.~.>.*.d F {.].) ^./.. . . (.| h . _.8 :.<.[.}.. . . . . . . . . . . . . . ",
". # $ / |.1.4 2.3.4.5.-.&.>.(.6.{.7.8.8.k . . . 9.4 @ 0.a.; b.1 c.+ . . . . . . . . . . . . . . ",
". # $ [ d.t 5 e.f.. c g.#.& h.h.{.i.. y E M . . F j.d k.#.y l.=.m.. . . . . . . . . . . . . . . ",
". # $ C }.n._ # e u . - E o.9 p.q.r., s.} n.= f.; t.u.! < : r.2.. . . . . . /  .$ v.O w.K & . . ",
". # $ (.x.'.y.z.. m.. >.y 1.r.A.B.P C.. D.i.6.].E.F._.9 G.H.k ~ . . . . j.A }.I.| J.; K.L.X . . ",
". # $ % M.N.O.P.Q.; > . A.% u R.L . . S.i.A T.m.L  .U.: k.3.t M.. . . m.2 ).V., / D.W.6.) . [ . ",
". # $ % C j %.6 g.. l X.9.X.z.Y.L.].Z.u 9.` c S i.0.g.9.u.Y.8.. . S.K _ `.=.[.A S 7 '  +j.. [ . ",
". # $ % . .+{.++j 3 . 6.! @+Q.y.) #+E $+G.B - a.%+n.o.m.J &+m (.S q.*+f =+| P . E.{.Q.B . [ . . ",
". # $ % . x.%+$.v.K.. u.N 1.[.-+R.k.k.1 -.;+7 T.. S.P N >+] *.4 - ,+).|.f . . . b.a.'+@ . . . . ",
". # $ % . . B.#+)+8 S.m.T.!+Z i.~+k.f . {+z 9 [ ' z.. W ]+T +.| T.t ~ % . . . l 4 j f . . . . . ",
". # $ % . . B p x ^+F./+J [.%+M T o.,+. p J C *.(+).. M.w.}.G _+| K.0.i.!+!+l B :+3 . . . . . . ",
". # 5 ' <+;+W *.N.2 [+C &.X.}+P.'+. $ , U l.|+c.U !.. 1+2+v.y.E . 9 S b Z.! t p.. . . . . . . . ",
". # $ . d.n.2 3+4+g W.!+5+| I 6+s.# ) 3.v /.k a B l./+I ^.0 !+: n 9.S } g.-+S.. . . . . . . . . ",
". # $ , 4+3.-.)+>.u.G.F q.R.V 6+/+|+z.B 9 /+. C. +*.0.s _+z '+4 K.r.f L _+. . . . . . . . . . . ",
". # $ / : @+/.a.[+. .+~ 5.%+c.7++ ] 5 8+: . . . E -+w._ ; ].Y..+. (.3.9+=+. . . . . . . . . . . ",
". h g. .C 0+B.1+Y 5 -+5 n.4.;.Z >.5.'.B.C $+. 8.5 +.f.4.I.|+a+b.} 4.6.A.. / / / / / / / / , . . ",
"/ L a+8 S W.k T J b+0 q.K y a+K c+L.7 d+<.J o =.}+}+,.- F 7 d+n.Q E A.8 S S S S S S S S ; n . . ",
"U.t.^+h.S.S./+X ~.X X R R X X R _.X R _.S.m S./+R R ..X R R _.m /+S./+m S.S.S.S.S.S.S.S.S.$+. . ",
". [ m U.. . . . . . . . . . . . . . . . . . . . . . . . . . . . . . . . . . . . . . . . . . . . "};
